<?xml version="1.0" encoding="utf-8"?><svg xmlns="http://www.w3.org/2000/svg" width="280" height="250" preserveAspectRatio="xMidYMid" xmlns:xlink="http://www.w3.org/1999/xlink" style="margin-right:-2px;display:block;background-repeat-y:initial;background-repeat-x:initial;animation-play-state:paused" ><style type="text/css" style="animation-play-state:paused" >text {
    text-anchor: middle; font-size: 80px; opacity: 0;
  }</style>


<g style="transform-origin:140px 125px;transform:matrix(1, 0, 0, 1, 0, 0);animation-play-state:paused" ><g transform="translate(140,125)" style="transform:matrix(1, 0, 0, 1, 140, 125);animation-play-state:paused" ><g transform="translate(0,0)" style="transform:matrix(1, 0, 0, 1, 0, 0);animation-play-state:paused" ><g class="path" style="transform-origin:-45.408px 14.4422px;transform:matrix(1.00092, 0, 0, 1.00092, 0, 0);animation-timing-function:linear;animation-play-state:paused;animation-name:breath-dc2203c6-1acf-496f-84d8-da1fe7fb35aa;animation-iteration-count:infinite;animation-fill-mode:forwards;animation-duration:1s;animation-delay:-0.628571s" ><path d="M22.48-3.36L22.48-3.36L22.48-3.36Q25.36-3.84 28.04-5.12L28.04-5.12L28.04-5.12Q30.72-6.40 32.88-8.40L32.88-8.40L32.88-8.40Q33.04-8.48 33.52-8.96L33.52-8.96L33.52-8.96Q34-9.44 34.16-9.28L34.16-9.28L34.16-9.28Q34.32-9.12 34.08-8.80L34.08-8.80L34.08-8.80Q33.84-8.48 33.68-8.24L33.68-8.24L33.68-8.24Q32.08-5.92 29.48-4.44L29.48-4.44L29.48-4.44Q26.88-2.96 24.08-2.08L24.08-2.08L24.08-2.08Q21.76-1.44 19.12-1.64L19.12-1.64L19.12-1.64Q16.48-1.84 14.16-2.96L14.16-2.96L14.16-2.96Q13.44-3.28 13.28-3.48L13.28-3.48L13.28-3.48Q13.12-3.68 13.28-3.76L13.28-3.76L13.28-3.76Q13.44-3.84 13.80-3.84L13.80-3.84L13.80-3.84Q14.16-3.84 14.48-3.76L14.48-3.76L14.48-3.76Q15.36-3.60 16.52-3.48L16.52-3.48L16.52-3.48Q17.68-3.36 18.84-3.32L18.84-3.32L18.84-3.32Q20-3.28 20.96-3.28L20.96-3.28L20.96-3.28Q21.92-3.28 22.48-3.36" fill="#292664" stroke="none" stroke-width="none" transform="translate(-69.11996459960938,19.89839532761348)" style="transform:matrix(1, 0, 0, 1, -69.12, 19.8984);fill:rgb(41, 38, 100);animation-play-state:paused" ></path></g>
<g class="path" style="transform-origin:-45.7785px -8.18942px;transform:matrix(1.00861, 0, 0, 1.00861, 0, 0);animation-timing-function:linear;animation-play-state:paused;animation-name:breath-dc2203c6-1acf-496f-84d8-da1fe7fb35aa;animation-iteration-count:infinite;animation-fill-mode:forwards;animation-duration:1s;animation-delay:-0.597143s" ><path d="M11.76-26.88L11.76-26.88L11.76-26.88Q11.36-24.08 11.36-21.40L11.36-21.40L11.36-21.40Q11.36-18.72 11.72-16.36L11.72-16.36L11.72-16.36Q12.08-14 12.84-12.16L12.84-12.16L12.84-12.16Q13.60-10.32 14.72-9.12L14.72-9.12L14.72-9.12Q16-7.84 17.88-7.16L17.88-7.16L17.88-7.16Q19.76-6.48 21.96-6.48L21.96-6.48L21.96-6.48Q24.16-6.48 26.60-7.12L26.60-7.12L26.60-7.12Q29.04-7.76 31.44-9.12L31.44-9.12L31.44-9.12Q31.92-9.44 32.08-9.28L32.08-9.28L32.08-9.28Q32.24-9.12 31.96-8.92L31.96-8.92L31.96-8.92Q31.68-8.72 31.44-8.56L31.44-8.56L31.44-8.56Q29.36-6.96 27.04-6L27.04-6L27.04-6Q24.72-5.04 22.36-4.80L22.36-4.80L22.36-4.80Q20-4.56 17.80-5.08L17.80-5.08L17.80-5.08Q15.60-5.60 13.84-7.04L13.84-7.04L13.84-7.04Q12.16-8.48 11.12-10.52L11.12-10.52L11.12-10.52Q10.08-12.56 9.56-15L9.56-15L9.56-15Q9.04-17.44 8.96-20.08L8.96-20.08L8.96-20.08Q8.88-22.72 9.12-25.28L9.12-25.28L9.12-25.28Q9.44-29.36 10.72-33.52L10.72-33.52L10.72-33.52Q12-37.68 14.12-41.20L14.12-41.20L14.12-41.20Q16.24-44.72 19.20-47.36L19.20-47.36L19.20-47.36Q22.16-50 25.84-51.04L25.84-51.04L25.84-51.04Q27.68-51.52 29.60-51.44L29.60-51.44L29.60-51.44Q31.52-51.36 33.16-50.72L33.16-50.72L33.16-50.72Q34.80-50.08 36-48.84L36-48.84L36-48.84Q37.20-47.60 37.60-45.84L37.60-45.84L37.60-45.84Q38-43.92 37.28-42.12L37.28-42.12L37.28-42.12Q36.56-40.32 35.28-39L35.28-39L35.28-39Q34-37.68 32.40-37.12L32.40-37.12L32.40-37.12Q30.80-36.56 29.36-37.12L29.36-37.12L29.36-37.12Q29.28-37.12 29.24-37.36L29.24-37.36L29.24-37.36Q29.20-37.60 29.52-37.52L29.52-37.52L29.52-37.52Q30.48-37.36 31.72-37.96L31.72-37.96L31.72-37.96Q32.96-38.56 33.96-39.60L33.96-39.60L33.96-39.60Q34.96-40.64 35.56-42.08L35.56-42.08L35.56-42.08Q36.16-43.52 35.92-45.04L35.92-45.04L35.92-45.04Q35.68-46.16 34.92-47L34.92-47L34.92-47Q34.16-47.84 32.96-48.36L32.96-48.36L32.96-48.36Q31.76-48.88 30.28-49.04L30.28-49.04L30.28-49.04Q28.80-49.20 27.20-48.88L27.20-48.88L27.20-48.88Q24.16-48.32 21.56-46.20L21.56-46.20L21.56-46.20Q18.96-44.08 16.96-41.04L16.96-41.04L16.96-41.04Q14.96-38 13.60-34.28L13.60-34.28L13.60-34.28Q12.24-30.56 11.76-26.88" fill="#292664" stroke="none" stroke-width="none" transform="translate(-69.11996459960938,19.89839532761348)" style="transform:matrix(1, 0, 0, 1, -69.12, 19.8984);fill:rgb(102, 115, 149);animation-play-state:paused" ></path></g>
<g class="path" style="transform-origin:-47.6594px -9.2696px;transform:matrix(1.0163, 0, 0, 1.0163, 0, 0);animation-timing-function:linear;animation-play-state:paused;animation-name:breath-dc2203c6-1acf-496f-84d8-da1fe7fb35aa;animation-iteration-count:infinite;animation-fill-mode:forwards;animation-duration:1s;animation-delay:-0.565714s" ><path d="M18.08-0.40L18.08-0.40L18.08-0.40Q18.96-0.32 19.88-0.32L19.88-0.32L19.88-0.32Q20.80-0.32 20.80-0.08L20.80-0.08L20.80-0.08Q20.80 0 20.48 0.04L20.48 0.04L20.48 0.04Q20.16 0.08 19.80 0.08L19.80 0.08L19.80 0.08Q19.44 0.08 19.04 0.08L19.04 0.08L19.04 0.08Q18.64 0.08 18.56 0.08L18.56 0.08L18.56 0.08Q16.08 0.08 13.68-0.64L13.68-0.64L13.68-0.64Q11.28-1.36 9.24-2.68L9.24-2.68L9.24-2.68Q7.20-4 5.60-5.92L5.60-5.92L5.60-5.92Q4-7.84 3.20-10.32L3.20-10.32L3.20-10.32Q1.60-15.20 1.36-19.84L1.36-19.84L1.36-19.84Q1.12-24.48 1.76-28.96L1.76-28.96L1.76-28.96Q2.08-31.52 3-34.76L3-34.76L3-34.76Q3.92-38 5.48-41.36L5.48-41.36L5.48-41.36Q7.04-44.72 9.40-48L9.40-48L9.40-48Q11.76-51.28 15.04-54L15.04-54L15.04-54Q18.48-56.88 22.68-57.84L22.68-57.84L22.68-57.84Q26.88-58.80 30.72-58.16L30.72-58.16L30.72-58.16Q34.56-57.52 37.52-55.48L37.52-55.48L37.52-55.48Q40.48-53.44 41.44-50.32L41.44-50.32L41.44-50.32Q41.52-50.16 41.60-49.64L41.60-49.64L41.60-49.64Q41.68-49.12 41.52-48.96L41.52-48.96L41.52-48.96Q41.44-48.88 41.28-49.36L41.28-49.36L41.28-49.36Q41.12-49.84 40.96-50L40.96-50L40.96-50Q37.60-54.56 33.36-55.80L33.36-55.80L33.36-55.80Q29.12-57.04 24.96-56.04L24.96-56.04L24.96-56.04Q20.80-55.04 17.12-52.36L17.12-52.36L17.12-52.36Q13.44-49.68 11.28-46.40L11.28-46.40L11.28-46.40Q7.52-40.72 5.56-34.32L5.56-34.32L5.56-34.32Q3.60-27.92 3.76-21.12L3.76-21.12L3.76-21.12Q3.84-18 4.44-14.56L4.44-14.56L4.44-14.56Q5.04-11.12 6.80-8L6.80-8L6.80-8Q8.56-4.80 11.64-2.68L11.64-2.68L11.64-2.68Q14.72-0.56 18.08-0.40" fill="#292664" stroke="none" stroke-width="none" transform="translate(-69.11996459960938,19.89839532761348)" style="transform:matrix(1, 0, 0, 1, -69.12, 19.8984);fill:rgb(148, 169, 206);animation-play-state:paused" ></path></g>
<g class="path" style="transform-origin:-45.5223px -21.4838px;transform:matrix(1.024, 0, 0, 1.024, 0, 0);animation-timing-function:linear;animation-play-state:paused;animation-name:breath-dc2203c6-1acf-496f-84d8-da1fe7fb35aa;animation-iteration-count:infinite;animation-fill-mode:forwards;animation-duration:1s;animation-delay:-0.534286s" ><path d="M6.56-30.48L6.56-30.48L6.56-30.48Q7.20-34.72 8.60-38.72L8.60-38.72L8.60-38.72Q10-42.72 12.28-46.04L12.28-46.04L12.28-46.04Q14.56-49.36 17.92-51.76L17.92-51.76L17.92-51.76Q21.28-54.16 25.84-55.12L25.84-55.12L25.84-55.12Q27.44-55.44 29.44-55.40L29.44-55.40L29.44-55.40Q31.44-55.36 33.44-54.68L33.44-54.68L33.44-54.68Q35.44-54 37.16-52.64L37.16-52.64L37.16-52.64Q38.88-51.28 40-48.88L40-48.88L40-48.88Q41.04-46.56 40.72-44.32L40.72-44.32L40.72-44.32Q40.40-42.08 39.36-40.28L39.36-40.28L39.36-40.28Q38.32-38.48 36.80-37.28L36.80-37.28L36.80-37.28Q35.28-36.08 33.84-35.92L33.84-35.92L33.84-35.92Q32.96-35.76 32.88-35.96L32.88-35.96L32.88-35.96Q32.80-36.16 33.76-36.48L33.76-36.48L33.76-36.48Q35.28-36.96 36.84-38.92L36.84-38.92L36.84-38.92Q38.40-40.88 38.72-43.92L38.72-43.92L38.72-43.92Q38.88-45.44 38.32-46.92L38.32-46.92L38.32-46.92Q37.76-48.40 36.72-49.52L36.72-49.52L36.72-49.52Q35.68-50.64 34.24-51.44L34.24-51.44L34.24-51.44Q32.80-52.24 31.20-52.48L31.20-52.48L31.20-52.48Q27.76-52.96 24.88-52L24.88-52L24.88-52Q22-51.04 19.88-49.56L19.88-49.56L19.88-49.56Q17.76-48.08 16.44-46.64L16.44-46.64L16.44-46.64Q15.12-45.20 14.80-44.72L14.80-44.72L14.80-44.72Q12.32-41.60 10.48-37.96L10.48-37.96L10.48-37.96Q8.64-34.32 7.44-30.32L7.44-30.32L7.44-30.32Q7.44-30.24 7.32-29.76L7.32-29.76L7.32-29.76Q7.20-29.28 7.08-28.76L7.08-28.76L7.08-28.76Q6.96-28.24 6.80-27.80L6.80-27.80L6.80-27.80Q6.64-27.36 6.56-27.36L6.56-27.36L6.56-27.36Q6.40-27.36 6.40-27.84L6.40-27.84L6.40-27.84Q6.40-28.32 6.40-28.84L6.40-28.84L6.40-28.84Q6.40-29.36 6.48-29.84L6.48-29.84L6.48-29.84Q6.56-30.32 6.56-30.48" fill="#292664" stroke="none" stroke-width="none" transform="translate(-69.11996459960938,19.89839532761348)" style="transform:matrix(1, 0, 0, 1, -69.12, 19.8984);fill:rgb(181, 204, 241);animation-play-state:paused" ></path></g>
<g class="path" style="transform-origin:-0.966829px -19.1736px;transform:matrix(1.02826, 0, 0, 1.02826, 0, 0);animation-timing-function:linear;animation-play-state:paused;animation-name:breath-dc2203c6-1acf-496f-84d8-da1fe7fb35aa;animation-iteration-count:infinite;animation-fill-mode:forwards;animation-duration:1s;animation-delay:-0.502857s" ><path d="M62.80-57.28L62.80-57.28L62.80-57.28Q62.64-57.52 62.36-58.04L62.36-58.04L62.36-58.04Q62.08-58.56 62.24-58.72L62.24-58.72L62.24-58.72Q62.40-58.88 62.76-58.64L62.76-58.64L62.76-58.64Q63.12-58.40 63.20-58.32L63.20-58.32L63.20-58.32Q64.64-57.28 65.88-55.44L65.88-55.44L65.88-55.44Q67.12-53.60 68.12-51.40L68.12-51.40L68.12-51.40Q69.12-49.20 69.92-46.80L69.92-46.80L69.92-46.80Q70.72-44.40 71.20-42.24L71.20-42.24L71.20-42.24Q72.40-36.96 73.24-31.84L73.24-31.84L73.24-31.84Q74.08-26.72 74.08-21.28L74.08-21.28L74.08-21.28Q74.08-21.12 74.12-20.32L74.12-20.32L74.12-20.32Q74.16-19.52 73.84-19.36L73.84-19.36L73.84-19.36Q73.60-19.52 73.32-20.16L73.32-20.16L73.32-20.16Q73.04-20.80 72.96-21.04L72.96-21.04L72.96-21.04Q72-24 71.24-27.80L71.24-27.80L71.24-27.80Q70.48-31.60 69.84-34.72L69.84-34.72L69.84-34.72Q69.36-37.12 68.96-39.32L68.96-39.32L68.96-39.32Q68.56-41.52 68.04-43.60L68.04-43.60L68.04-43.60Q67.52-45.68 66.84-47.80L66.84-47.80L66.84-47.80Q66.16-49.92 65.20-52.24L65.20-52.24L65.20-52.24Q65.04-52.56 64.68-53.36L64.68-53.36L64.68-53.36Q64.32-54.16 63.92-54.96L63.92-54.96L63.92-54.96Q63.52-55.76 63.20-56.44L63.20-56.44L63.20-56.44Q62.88-57.12 62.80-57.28" fill="#292664" stroke="none" stroke-width="none" transform="translate(-69.11996459960938,19.89839532761348)" style="transform:matrix(1, 0, 0, 1, -69.12, 19.8984);fill:rgb(245, 244, 250);animation-play-state:paused" ></path></g>
<g class="path" style="transform-origin:-9.40612px -8.66776px;transform:matrix(1.02087, 0, 0, 1.02087, 0, 0);animation-timing-function:linear;animation-play-state:paused;animation-name:breath-dc2203c6-1acf-496f-84d8-da1fe7fb35aa;animation-iteration-count:infinite;animation-fill-mode:forwards;animation-duration:1s;animation-delay:-0.471429s" ><path d="M82 2L82 2L82 2Q81.12 1.52 80.80 1.40L80.80 1.40L80.80 1.40Q80.48 1.28 79.60 0.72L79.60 0.72L79.60 0.72Q77.68-0.40 76.08-2.20L76.08-2.20L76.08-2.20Q74.48-4 73.20-6.16L73.20-6.16L73.20-6.16Q71.92-8.32 70.92-10.76L70.92-10.76L70.92-10.76Q69.92-13.20 69.20-15.60L69.20-15.60L69.20-15.60Q67.60-14.56 65.40-14.36L65.40-14.36L65.40-14.36Q63.20-14.16 61.36-14.16L61.36-14.16L61.36-14.16Q59.04-14.16 56.76-14.32L56.76-14.32L56.76-14.32Q54.48-14.48 52.16-14.48L52.16-14.48L52.16-14.48Q49.92-10.32 47.96-6.44L47.96-6.44L47.96-6.44Q46.00-2.56 44.88 0.80L44.88 0.80L44.88 0.80Q44.88 0.88 44.80 1.16L44.80 1.16L44.80 1.16Q44.72 1.44 44.56 1.44L44.56 1.44L44.56 1.44Q44.32 1.44 44.32 0.88L44.32 0.88L44.32 0.88Q44.32 0.32 44.32 0.16L44.32 0.16L44.32 0.16Q44.32-3.04 45.88-7L45.88-7L45.88-7Q47.44-10.96 49.36-14.80L49.36-14.80L48.16-14.88L48.16-14.88Q47.68-13.76 46.84-11.76L46.84-11.76L46.84-11.76Q46.00-9.76 45.24-7.60L45.24-7.60L45.24-7.60Q44.48-5.44 43.88-3.44L43.88-3.44L43.88-3.44Q43.28-1.44 43.28-0.24L43.28-0.24L43.28-0.24Q43.28 0 43.04 0L43.04 0L43.04 0Q42.72 0 42.56-0.52L42.56-0.52L42.56-0.52Q42.40-1.04 42.28-1.68L42.28-1.68L42.28-1.68Q42.16-2.32 42.12-3L42.12-3L42.12-3Q42.08-3.68 42.08-3.92L42.08-3.92L42.08-3.92Q42.08-6.72 42.80-9.80L42.80-9.80L42.80-9.80Q43.52-12.88 44.72-15.44L44.72-15.44L43.68-15.60L43.68-15.60Q42.96-13.84 42.32-12.12L42.32-12.12L42.32-12.12Q41.68-10.40 41.20-8.56L41.20-8.56L41.20-8.56Q41.20-8.40 41.12-8.16L41.12-8.16L41.12-8.16Q41.04-7.92 40.88-8L40.88-8L40.88-8Q40.72-8.32 40.68-8.76L40.68-8.76L40.68-8.76Q40.64-9.20 40.64-9.52L40.64-9.52L40.64-9.52Q40.64-12.88 41.84-16L41.84-16L41.84-16Q42.24-16.80 42.64-16.80L42.64-16.80L42.64-16.80Q44.32-17.28 46.04-17.36L46.04-17.36L46.04-17.36Q47.76-17.44 49.60-17.44L49.60-17.44L49.60-17.44Q53.60-17.44 57.52-16.84L57.52-16.84L57.52-16.84Q61.44-16.24 65.36-16.24L65.36-16.24L65.36-16.24Q67.28-16.24 68.88-16.56L68.88-16.56L68.72-17.84L68.72-17.84Q67.84-17.60 66.84-17.52L66.84-17.52L66.84-17.52Q65.84-17.44 64.96-17.44L64.96-17.44L64.96-17.44Q61.84-17.44 58.52-18.08L58.52-18.08L58.52-18.08Q55.20-18.72 52.16-19.60L52.16-19.60L52.16-19.60Q52.00-19.76 51.52-19.88L51.52-19.88L51.52-19.88Q51.04-20 51.04-20.24L51.04-20.24L51.04-20.24Q51.04-20.40 51.52-20.52L51.52-20.52L51.52-20.52Q52.00-20.64 52.16-20.64L52.16-20.64L52.16-20.64Q53.28-20.72 54.36-20.76L54.36-20.76L54.36-20.76Q55.44-20.80 56.56-20.80L56.56-20.80L56.56-20.80Q58.40-20.80 60.24-20.76L60.24-20.76L60.24-20.76Q62.08-20.72 64-20.72L64-20.72L64-20.72Q64.96-20.72 66-20.72L66-20.72L66-20.72Q67.04-20.72 68-20.80L68-20.80L67.84-21.68L66.80-21.68L66.80-21.68Q62.96-21.68 59.16-22.40L59.16-22.40L59.16-22.40Q55.36-23.12 51.52-23.12L51.52-23.12L51.52-23.12Q48.24-23.12 45.72-22.32L45.72-22.32L45.72-22.32Q43.20-21.52 41.40-20.48L41.40-20.48L41.40-20.48Q39.60-19.44 38.48-18.40L38.48-18.40L38.48-18.40Q37.36-17.36 36.88-16.88L36.88-16.88L36.88-16.88Q36.72-16.80 36.72-16.80L36.72-16.80L36.72-16.80Q36.64-16.80 36.64-16.96L36.64-16.96L36.64-16.96Q36.64-17.04 36.72-17.12L36.72-17.12L36.72-17.12Q38.16-19.92 40.24-21.80L40.24-21.80L40.24-21.80Q42.32-23.68 45.36-24.64L45.36-24.64L45.36-24.64Q48.40-31.12 51.64-37.52L51.64-37.52L51.64-37.52Q54.88-43.92 58.48-50.16L58.48-50.16L58.48-50.16Q58.56-50.32 58.80-50.68L58.80-50.68L58.80-50.68Q59.04-51.04 59.28-51.04L59.28-51.04L59.28-51.04Q59.36-50.96 59.36-50.88L59.36-50.88L59.36-50.72L59.36-50.72Q59.36-50.08 59.28-49.76L59.28-49.76L59.28-49.76Q57.76-43.28 54.80-37.28L54.80-37.28L54.80-37.28Q51.84-31.28 48.72-25.44L48.72-25.44L50.24-25.52L50.24-25.52Q50.48-26 51.48-27.60L51.48-27.60L51.48-27.60Q52.48-29.20 53.64-30.92L53.64-30.92L53.64-30.92Q54.80-32.64 55.76-34.04L55.76-34.04L55.76-34.04Q56.72-35.44 56.96-35.44L56.96-35.44L57.04-35.20L57.04-35.20Q57.04-34.80 56.56-33.44L56.56-33.44L56.56-33.44Q56.08-32.08 55.44-30.48L55.44-30.48L55.44-30.48Q54.80-28.88 54.20-27.48L54.20-27.48L54.20-27.48Q53.60-26.08 53.36-25.52L53.36-25.52L53.36-25.52Q53.84-25.52 54.32-25.48L54.32-25.48L54.32-25.48Q54.80-25.44 55.28-25.44L55.28-25.44L55.28-25.44Q56.72-28.32 58.36-31.48L58.36-31.48L58.36-31.48Q60.00-34.64 61.20-37.92L61.20-37.92L61.20-37.92Q62.40-41.20 62.84-44.56L62.84-44.56L62.84-44.56Q63.28-47.92 62.32-51.20L62.32-51.20L62.32-51.20Q62.32-50.80 62.12-49.60L62.12-49.60L62.12-49.60Q61.92-48.40 61.60-47.08L61.60-47.08L61.60-47.08Q61.28-45.76 60.96-44.76L60.96-44.76L60.96-44.76Q60.64-43.76 60.32-43.76L60.32-43.76L60.32-43.76Q60.08-43.76 60.12-44.08L60.12-44.08L60.12-44.08Q60.16-44.40 60.16-44.48L60.16-44.48L60.16-44.48Q60.16-46.56 60.44-48.60L60.44-48.60L60.44-48.60Q60.72-50.64 60.72-52.72L60.72-52.72L60.72-52.72Q60.72-55.52 59.84-58.16L59.84-58.16L59.84-58.16Q59.84-58.24 59.60-58.84L59.60-58.84L59.60-58.84Q59.36-59.44 59.76-59.44L59.76-59.44L59.76-59.44Q59.92-59.44 60.32-59.04L60.32-59.04L60.32-59.04Q61.12-58.24 61.88-56.88L61.88-56.88L61.88-56.88Q62.64-55.52 63.28-53.96L63.28-53.96L63.28-53.96Q63.92-52.40 64.48-50.88L64.48-50.88L64.48-50.88Q65.04-49.36 65.36-48.32L65.36-48.32L65.36-48.32Q66.40-44.88 67.08-41.40L67.08-41.40L67.08-41.40Q67.76-37.92 68.28-34.44L68.28-34.44L68.28-34.44Q68.80-30.96 69.36-27.44L69.36-27.44L69.36-27.44Q69.92-23.92 70.64-20.48L70.64-20.48L70.64-20.48Q71.36-17.12 72.36-13.92L72.36-13.92L72.36-13.92Q73.36-10.72 74.80-7.84L74.80-7.84L74.80-7.84Q76.24-4.96 78.12-2.52L78.12-2.52L78.12-2.52Q80-0.08 82.48 1.76L82.48 1.76L82.48 1.76Q82.88 2.16 82.76 2.28L82.76 2.28L82.76 2.28Q82.64 2.40 82 2zM58.08-25.12L58.08-25.12L58.08-25.12Q60.40-24.88 62.68-24.56L62.68-24.56L62.68-24.56Q64.96-24.24 67.28-24.08L67.28-24.08L67.28-24.08Q66.40-28.32 65.76-32.48L65.76-32.48L65.76-32.48Q65.12-36.64 64.56-40.96L64.56-40.96L64.56-40.96Q63.52-36.80 61.72-32.88L61.72-32.88L61.72-32.88Q59.92-28.96 58.08-25.12" fill="#292664" stroke="none" stroke-width="none" transform="translate(-69.11996459960938,19.89839532761348)" style="transform:matrix(1, 0, 0, 1, -69.12, 19.8984);fill:rgb(242, 190, 209);animation-play-state:paused" ></path></g>
<g class="path" style="transform-origin:6.45337px -8.68007px;transform:matrix(1.01348, 0, 0, 1.01348, 0, 0);animation-timing-function:linear;animation-play-state:paused;animation-name:breath-dc2203c6-1acf-496f-84d8-da1fe7fb35aa;animation-iteration-count:infinite;animation-fill-mode:forwards;animation-duration:1s;animation-delay:-0.44s" ><path d="M81.60-5.76L81.84-4.80L81.84-4.80Q81.92-4.32 81.76-4.36L81.76-4.36L81.76-4.36Q81.60-4.40 81.40-4.64L81.40-4.64L81.40-4.64Q81.20-4.88 81-5.20L81-5.20L81-5.20Q80.80-5.52 80.80-5.60L80.80-5.60L80.80-5.60Q78.88-9.12 77.76-12.76L77.76-12.76L77.76-12.76Q76.64-16.40 76-20.12L76-20.12L76-20.12Q75.36-23.84 74.92-27.64L74.92-27.64L74.92-27.64Q74.48-31.44 73.88-35.40L73.88-35.40L73.88-35.40Q73.28-39.36 72.32-43.44L72.32-43.44L72.32-43.44Q71.36-47.52 69.60-51.76L69.60-51.76L69.60-51.76Q69.52-51.92 69.36-52.32L69.36-52.32L69.36-52.32Q69.20-52.72 69.36-52.80L69.36-52.80L69.36-52.80Q69.52-52.80 69.76-52.56L69.76-52.56L70.08-52.24L70.08-52.24Q71.84-50.16 73.20-46.72L73.20-46.72L73.20-46.72Q74.56-43.28 75.60-39.36L75.60-39.36L75.60-39.36Q76.64-35.44 77.32-31.60L77.32-31.60L77.32-31.60Q78-27.76 78.40-24.88L78.40-24.88L78.40-24.88Q79.04-20.32 79.76-15.28L79.76-15.28L79.76-15.28Q80.48-10.24 81.60-5.76L81.60-5.76" fill="#292664" stroke="none" stroke-width="none" transform="translate(-69.11996459960938,19.89839532761348)" style="transform:matrix(1, 0, 0, 1, -69.12, 19.8984);fill:rgb(135, 67, 77);animation-play-state:paused" ></path></g>
<g class="path" style="transform-origin:11.347px 14.7384px;transform:matrix(1.00609, 0, 0, 1.00609, 0, 0);animation-timing-function:linear;animation-play-state:paused;animation-name:breath-dc2203c6-1acf-496f-84d8-da1fe7fb35aa;animation-iteration-count:infinite;animation-fill-mode:forwards;animation-duration:1s;animation-delay:-0.408571s" ><path d="M84.40 1.12L84.40 1.12L84.40 1.12Q82.80 0.40 81.60-0.28L81.60-0.28L81.60-0.28Q80.40-0.96 79.52-2.16L79.52-2.16L79.52-2.16Q78.16-4 77.40-5.84L77.40-5.84L77.40-5.84Q76.64-7.68 76.16-9.28L76.16-9.28L76.16-9.28Q76-9.92 75.88-10.72L75.88-10.72L75.88-10.72Q75.76-11.52 75.92-11.52L75.92-11.52L75.92-11.52Q76.24-11.52 76.72-10.48L76.72-10.48L76.72-10.48Q77.20-9.44 77.60-8.72L77.60-8.72L77.60-8.72Q78.80-6.24 80.64-3.72L80.64-3.72L80.64-3.72Q82.48-1.20 84.64 0.40L84.64 0.40L84.64 0.40Q85.28 0.96 85.04 1.12L85.04 1.12L85.04 1.12Q84.80 1.28 84.40 1.12" fill="#292664" stroke="none" stroke-width="none" transform="translate(-69.11996459960938,19.89839532761348)" style="transform:matrix(1, 0, 0, 1, -69.12, 19.8984);fill:rgb(85, 43, 47);animation-play-state:paused" ></path></g>
<g class="path" style="transform-origin:-27.88px 2.6984px;transform:matrix(0.998695, 0, 0, 0.998695, 0, 0);animation-timing-function:linear;animation-play-state:paused;animation-name:breath-dc2203c6-1acf-496f-84d8-da1fe7fb35aa;animation-iteration-count:infinite;animation-fill-mode:forwards;animation-duration:1s;animation-delay:-0.377143s" ><path d="M37.12-14.24L37.12-14.24L37.12-14.24Q37.12-14.24 36.96-14.24L36.96-14.24L36.88-14.24L36.88-14.24Q36.88-14.48 36.96-14.72L36.96-14.72L36.96-14.72Q37.04-14.96 37.12-15.20L37.12-15.20L37.12-15.20Q37.76-16.56 38.36-17.24L38.36-17.24L38.36-17.24Q38.96-17.92 40.32-18.72L40.32-18.72L40.32-18.72Q41.12-19.20 42.56-19.68L42.56-19.68L42.56-19.68Q44.00-20.16 44.88-20.16L44.88-20.16L44.88-20.16Q45.04-20.16 45.32-20.12L45.32-20.12L45.32-20.12Q45.60-20.08 45.60-19.84L45.60-19.84L45.60-19.84Q45.60-19.60 44.76-19.20L44.76-19.20L44.76-19.20Q43.92-18.80 43.68-18.64L43.68-18.64L43.68-18.64Q40.64-16.80 39.20-15.84L39.20-15.84L39.20-15.84Q37.76-14.88 37.12-14.24" fill="#292664" stroke="none" stroke-width="none" transform="translate(-69.11996459960938,19.89839532761348)" style="transform:matrix(1, 0, 0, 1, -69.12, 19.8984);fill:rgb(41, 38, 100);animation-play-state:paused" ></path></g>
<g class="path" style="transform-origin:33.4534px -5.404px;transform:matrix(0.991304, 0, 0, 0.991304, 0, 0);animation-timing-function:linear;animation-play-state:paused;animation-name:breath-dc2203c6-1acf-496f-84d8-da1fe7fb35aa;animation-iteration-count:infinite;animation-fill-mode:forwards;animation-duration:1s;animation-delay:-0.345714s" ><path d="M105.52-15.44L105.52-15.44L105.52-15.44Q108.08-13.12 110.32-10.52L110.32-10.52L110.32-10.52Q112.56-7.92 114.64-5.12L114.64-5.12L114.64-5.12Q114.72-4.96 115.08-4.52L115.08-4.52L115.08-4.52Q115.44-4.08 115.28-3.92L115.28-3.92L115.28-3.92Q115.20-3.84 114.68-4.04L114.68-4.04L114.68-4.04Q114.16-4.24 114.00-4.40L114.00-4.40L114.00-4.40Q113.36-4.80 112.52-5.44L112.52-5.44L112.52-5.44Q111.68-6.08 110.76-6.80L110.76-6.80L110.76-6.80Q109.84-7.52 108.96-8.28L108.96-8.28L108.96-8.28Q108.08-9.04 107.52-9.68L107.52-9.68L107.52-9.68Q107.12-10 105.60-11.32L105.60-11.32L105.60-11.32Q104.08-12.64 102.16-14.16L102.16-14.16L102.16-14.16Q100.24-15.68 98.24-16.96L98.24-16.96L98.24-16.96Q96.24-18.24 94.96-18.56L94.96-18.56L94.96-18.56Q94.72-18.64 94.28-18.80L94.28-18.80L94.28-18.80Q93.84-18.96 93.92-19.36L93.92-19.36L93.92-19.36Q94.56-22.40 95.52-25.28L95.52-25.28L95.52-25.28Q96.48-28.16 97.36-31.20L97.36-31.20L97.36-31.20Q98.48-34.96 99.48-38.88L99.48-38.88L99.48-38.88Q100.48-42.80 100.64-47.36L100.64-47.36L100.64-47.36Q100.64-47.76 100.72-47.76L100.72-47.76L100.72-47.76Q100.96-47.76 101.12-47.20L101.12-47.20L101.12-47.20Q102.08-45.04 101.92-41.60L101.92-41.60L101.92-41.60Q101.76-38.16 101.08-34.44L101.08-34.44L101.08-34.44Q100.40-30.72 99.40-27.32L99.40-27.32L99.40-27.32Q98.40-23.92 97.68-21.92L97.68-21.92L97.44-21.28L97.44-21.28Q100.40-23.28 103.60-25.28L103.60-25.28L103.60-25.28Q106.80-27.28 109.56-29.32L109.56-29.32L109.56-29.32Q112.32-31.36 114.36-33.56L114.36-33.56L114.36-33.56Q116.40-35.76 117.12-38.16L117.12-38.16L117.12-38.16Q117.60-39.76 117.00-41.36L117.00-41.36L117.00-41.36Q116.40-42.96 114.92-44.36L114.92-44.36L114.92-44.36Q113.44-45.76 111.20-46.80L111.20-46.80L111.20-46.80Q108.96-47.84 106.24-48.24L106.24-48.24L106.24-48.24Q102.64-48.72 98.96-48.48L98.96-48.48L98.96-48.48Q99.28-46.08 99.08-43.64L99.08-43.64L99.08-43.64Q98.88-41.20 98.48-39.44L98.48-39.44L98.48-39.44Q97.44-35.12 95.84-30.52L95.84-30.52L95.84-30.52Q94.24-25.92 92.56-21.92L92.56-21.92L92.56-21.92Q92.40-21.68 92.08-21.12L92.08-21.12L92.08-21.12Q91.76-20.56 91.52-20.64L91.52-20.64L91.52-20.64Q91.36-20.72 91.44-21.36L91.44-21.36L91.44-21.36Q91.52-22 91.52-22.24L91.52-22.24L91.52-22.24Q91.60-23.20 91.88-24.60L91.88-24.60L91.88-24.60Q92.16-26 92.44-27.52L92.44-27.52L92.44-27.52Q92.72-29.04 93.08-30.44L93.08-30.44L93.08-30.44Q93.44-31.84 93.76-32.88L93.76-32.88L93.76-32.88Q93.92-33.36 94.28-34.92L94.28-34.92L94.28-34.92Q94.64-36.48 95.04-38.64L95.04-38.64L95.04-38.64Q95.44-40.80 95.84-43.28L95.84-43.28L95.84-43.28Q96.24-45.76 96.48-48.08L96.48-48.08L95.36-47.92L95.36-47.92Q95.12-44.88 94.40-41.76L94.40-41.76L94.40-41.76Q93.68-38.64 92.76-35.48L92.76-35.48L92.76-35.48Q91.84-32.32 90.84-29.08L90.84-29.08L90.84-29.08Q89.84-25.84 89.12-22.72L89.12-22.72L89.12-22.72Q88.48-19.92 88.12-16.88L88.12-16.88L88.12-16.88Q87.76-13.84 87.88-10.88L87.88-10.88L87.88-10.88Q88.00-7.92 88.60-5.16L88.60-5.16L88.60-5.16Q89.20-2.40 90.56-0.16L90.56-0.16L90.56-0.16Q90.72 0.24 90.56 0.24L90.56 0.24L90.56 0.24Q90.40 0.24 90.16 0L90.16 0L90.16 0Q88.16-2.32 87.12-5.20L87.12-5.20L87.12-5.20Q86.08-8.08 85.80-11.24L85.80-11.24L85.80-11.24Q85.52-14.40 85.88-17.76L85.88-17.76L85.88-17.76Q86.24-21.12 86.96-24.32L86.96-24.32L86.96-24.32Q88.32-30.32 90.24-36.16L90.24-36.16L90.24-36.16Q92.16-42 93.44-47.44L93.44-47.44L93.44-47.44Q91.44-46.96 89.52-46.28L89.52-46.28L89.52-46.28Q87.60-45.60 85.92-44.80L85.92-44.80L85.92-44.80Q85.52-44.64 85.44-44.72L85.44-44.72L85.44-44.72Q85.36-44.80 85.52-45L85.52-45L85.52-45Q85.68-45.20 85.84-45.28L85.84-45.28L85.84-45.28Q89.84-48.56 95.60-49.92L95.60-49.92L95.60-49.92Q101.36-51.28 107.36-50.64L107.36-50.64L107.36-50.64Q110.48-50.24 113.08-48.88L113.08-48.88L113.08-48.88Q115.68-47.52 117.36-45.56L117.36-45.56L117.36-45.56Q119.04-43.60 119.56-41.20L119.56-41.20L119.56-41.20Q120.08-38.80 119.04-36.40L119.04-36.40L119.04-36.40Q117.84-33.60 115.24-31.20L115.24-31.20L115.24-31.20Q112.64-28.80 109.40-26.72L109.40-26.72L109.40-26.72Q106.16-24.64 102.56-22.88L102.56-22.88L102.56-22.88Q98.96-21.12 95.84-19.60L95.84-19.60L95.84-19.60Q97.12-19.60 98.48-19.20L98.48-19.20L98.48-19.20Q99.84-18.80 101.16-18.20L101.16-18.20L101.16-18.20Q102.48-17.60 103.64-16.88L103.64-16.88L103.64-16.88Q104.80-16.16 105.52-15.44" fill="#292664" stroke="none" stroke-width="none" transform="translate(-69.11996459960938,19.89839532761348)" style="transform:matrix(1, 0, 0, 1, -69.12, 19.8984);fill:rgb(102, 115, 149);animation-play-state:paused" ></path></g>
<g class="path" style="transform-origin:42.1814px -18.733px;transform:matrix(0.983913, 0, 0, 0.983913, 0, 0);animation-timing-function:linear;animation-play-state:paused;animation-name:breath-dc2203c6-1acf-496f-84d8-da1fe7fb35aa;animation-iteration-count:infinite;animation-fill-mode:forwards;animation-duration:1s;animation-delay:-0.314286s" ><path d="M127.68-35.44L127.68-35.44L127.68-35.44Q126.48-31.28 124.04-28.36L124.04-28.36L124.04-28.36Q121.60-25.44 118.64-23.52L118.64-23.52L118.64-23.52Q115.68-21.60 112.64-20.60L112.64-20.60L112.64-20.60Q109.60-19.60 107.36-19.28L107.36-19.28L107.36-19.28Q106.72-19.12 106.20-19.16L106.20-19.16L106.20-19.16Q105.68-19.20 105.76-19.36L105.76-19.36L105.76-19.36Q105.60-19.52 106.12-19.68L106.12-19.68L106.12-19.68Q106.64-19.84 107.20-20.08L107.20-20.08L107.20-20.08Q111.52-21.68 115.52-24.24L115.52-24.24L115.52-24.24Q119.52-26.80 122.56-31.04L122.56-31.04L122.56-31.04Q124.00-33.04 124.72-35.68L124.72-35.68L124.72-35.68Q125.44-38.32 125.24-41.04L125.24-41.04L125.24-41.04Q125.04-43.76 123.88-46.32L123.88-46.32L123.88-46.32Q122.72-48.88 120.48-50.72L120.48-50.72L120.48-50.72Q117.84-52.96 114.72-54.24L114.72-54.24L114.72-54.24Q111.60-55.52 108.32-56L108.32-56L108.32-56Q105.04-56.48 101.68-56.20L101.68-56.20L101.68-56.20Q98.32-55.92 95.20-55.12L95.20-55.12L95.20-55.12Q94.64-54.96 94.56-54.92L94.56-54.92L94.56-54.92Q94.48-54.88 94.40-55.04L94.40-55.04L94.40-55.04Q94.40-55.12 95.04-55.60L95.04-55.60L95.04-55.60Q96.32-56.40 98.44-57.08L98.44-57.08L98.44-57.08Q100.56-57.76 103.24-58L103.24-58L103.24-58Q105.92-58.24 109.04-57.96L109.04-57.96L109.04-57.96Q112.16-57.68 115.44-56.48L115.44-56.48L115.44-56.48Q118.80-55.36 121.76-53L121.76-53L121.76-53Q124.72-50.64 126.48-47.20L126.48-47.20L126.48-47.20Q128.16-43.84 128.20-40.68L128.20-40.68L128.20-40.68Q128.24-37.52 127.68-35.44" fill="#292664" stroke="none" stroke-width="none" transform="translate(-69.11996459960938,19.89839532761348)" style="transform:matrix(1, 0, 0, 1, -69.12, 19.8984);fill:rgb(148, 169, 206);animation-play-state:paused" ></path></g>
<g class="path" style="transform-origin:35.8661px -24.4517px;transform:matrix(0.976521, 0, 0, 0.976521, 0, 0);animation-timing-function:linear;animation-play-state:paused;animation-name:breath-dc2203c6-1acf-496f-84d8-da1fe7fb35aa;animation-iteration-count:infinite;animation-fill-mode:forwards;animation-duration:1s;animation-delay:-0.282857s" ><path d="M87.04-48.48L87.04-48.48L87.04-48.48Q88.64-50.80 91.28-52.28L91.28-52.28L91.28-52.28Q93.92-53.76 97.04-54.48L97.04-54.48L97.04-54.48Q100.16-55.20 103.56-55.12L103.56-55.12L103.56-55.12Q106.96-55.04 110.16-54.32L110.16-54.32L110.16-54.32Q113.36-53.60 116.12-52.16L116.12-52.16L116.12-52.16Q118.88-50.72 120.72-48.64L120.72-48.64L120.72-48.64Q122.00-47.12 122.68-45.40L122.68-45.40L122.68-45.40Q123.36-43.68 123.40-41.88L123.40-41.88L123.40-41.88Q123.44-40.08 123.00-38.40L123.00-38.40L123.00-38.40Q122.56-36.72 121.76-35.28L121.76-35.28L121.76-35.28Q121.60-34.96 120.96-34.20L120.96-34.20L120.96-34.20Q120.32-33.44 120.16-33.60L120.16-33.60L120.16-33.60Q120.00-33.68 120.40-34.48L120.40-34.48L120.40-34.48Q120.80-35.28 120.96-35.68L120.96-35.68L120.96-35.68Q121.60-37.76 121.48-39.80L121.48-39.80L121.48-39.80Q121.36-41.84 120.68-43.60L120.68-43.60L120.68-43.60Q120.00-45.36 118.88-46.76L118.88-46.76L118.88-46.76Q117.76-48.16 116.48-49.04L116.48-49.04L116.48-49.04Q113.44-51.04 109.60-51.88L109.60-51.88L109.60-51.88Q105.76-52.72 101.80-52.52L101.80-52.52L101.80-52.52Q97.84-52.32 94.08-51.16L94.08-51.16L94.08-51.16Q90.32-50 87.60-48.08L87.60-48.08L87.60-48.08Q86.88-47.44 86.64-47.68L86.64-47.68L86.64-47.68Q86.48-47.76 86.68-48.04L86.68-48.04L86.68-48.04Q86.88-48.32 87.04-48.48" fill="#292664" stroke="none" stroke-width="none" transform="translate(-69.11996459960938,19.89839532761348)" style="transform:matrix(1, 0, 0, 1, -69.12, 19.8984);fill:rgb(181, 204, 241);animation-play-state:paused" ></path></g>
<g class="path" style="transform-origin:41.44px 12.5831px;transform:matrix(0.96913, 0, 0, 0.96913, 0, 0);animation-timing-function:linear;animation-play-state:paused;animation-name:breath-dc2203c6-1acf-496f-84d8-da1fe7fb35aa;animation-iteration-count:infinite;animation-fill-mode:forwards;animation-duration:1s;animation-delay:-0.251429s" ><path d="M129.68 1.92L129.68 1.92L129.68 1.92Q130.16 1.84 130.16 2L130.16 2L130.16 2Q130.16 2.16 129.76 2.32L129.76 2.32L129.76 2.32Q126.88 3.36 124.16 3.44L124.16 3.44L124.16 3.44Q121.44 3.52 118.96 2.92L118.96 2.92L118.96 2.92Q116.48 2.32 114.32 1.24L114.32 1.24L114.32 1.24Q112.16 0.16 110.40-1.12L110.40-1.12L110.40-1.12Q108.32-2.64 106.44-4.52L106.44-4.52L106.44-4.52Q104.56-6.40 102.80-8.28L102.80-8.28L102.80-8.28Q101.04-10.16 99.28-11.92L99.28-11.92L99.28-11.92Q97.52-13.68 95.68-15.04L95.68-15.04L95.68-15.04Q94.32-10.56 93.20-7.12L93.20-7.12L93.20-7.12Q93.04-6.72 92.88-6.40L92.88-6.40L92.88-6.40Q92.72-6.08 92.56-6.16L92.56-6.16L92.56-6.16Q92.40-6.24 92.40-6.60L92.40-6.60L92.40-6.60Q92.40-6.96 92.40-7.36L92.40-7.36L92.40-7.36Q92.56-9.60 92.72-11.92L92.72-11.92L92.72-11.92Q92.88-14.24 93.44-16.56L93.44-16.56L93.44-16.56Q92.88-16.88 92.36-17.12L92.36-17.12L92.36-17.12Q91.84-17.36 91.20-17.68L91.20-17.68L91.20-17.68Q90.96-17.92 90.96-18L90.96-18L90.96-18Q90.96-18.08 91.16-18.08L91.16-18.08L91.16-18.08Q91.36-18.08 91.52-18.08L91.52-18.08L91.52-18.08Q94.72-17.84 97.36-16.12L97.36-16.12L97.36-16.12Q100.00-14.40 102.48-12.08L102.48-12.08L102.48-12.08Q104.96-9.76 107.36-7.16L107.36-7.16L107.36-7.16Q109.76-4.56 112.48-2.56L112.48-2.56L112.48-2.56Q114.00-1.44 115.96-0.52L115.96-0.52L115.96-0.52Q117.92 0.40 120.16 1.04L120.16 1.04L120.16 1.04Q122.40 1.68 124.84 1.96L124.84 1.96L124.84 1.96Q127.28 2.24 129.68 1.92" fill="#292664" stroke="none" stroke-width="none" transform="translate(-69.11996459960938,19.89839532761348)" style="transform:matrix(1, 0, 0, 1, -69.12, 19.8984);fill:rgb(245, 244, 250);animation-play-state:paused" ></path></g>
<g class="path" style="transform-origin:43.485px 6.86557px;transform:matrix(0.961739, 0, 0, 0.961739, 0, 0);animation-timing-function:linear;animation-play-state:paused;animation-name:breath-dc2203c6-1acf-496f-84d8-da1fe7fb35aa;animation-iteration-count:infinite;animation-fill-mode:forwards;animation-duration:1s;animation-delay:-0.22s" ><path d="M117.28-9.76L117.28-9.76L117.28-9.76Q119.52-7.76 121.56-5.28L121.56-5.28L121.56-5.28Q123.60-2.80 125.52-1.28L125.52-1.28L125.52-1.28Q126.08-0.72 126.00-0.48L126.00-0.48L126.00-0.48Q125.84-0.32 125.60-0.40L125.60-0.40L125.60-0.40Q125.36-0.48 125.04-0.56L125.04-0.56L125.04-0.56Q122.88-1.28 121.00-2.56L121.00-2.56L121.00-2.56Q119.12-3.84 117.36-5.44L117.36-5.44L117.36-5.44Q115.60-7.04 113.96-8.80L113.96-8.80L113.96-8.80Q112.32-10.56 110.64-12.24L110.64-12.24L110.64-12.24Q109.52-13.36 108.20-14.72L108.20-14.72L108.20-14.72Q106.88-16.08 105.44-17.24L105.44-17.24L105.44-17.24Q104.00-18.40 102.44-19.16L102.44-19.16L102.44-19.16Q100.88-19.92 99.20-19.92L99.20-19.92L102.32-21.28L102.32-21.28Q103.52-21.84 105.28-22.64L105.28-22.64L105.28-22.64Q107.04-23.44 108.64-24.16L108.64-24.16L108.64-24.16Q110.24-24.88 111.44-25.32L111.44-25.32L111.44-25.32Q112.64-25.76 112.72-25.68L112.72-25.68L112.72-25.68Q112.80-25.52 112.44-25.12L112.44-25.12L112.44-25.12Q112.08-24.72 111.48-24.24L111.48-24.24L111.48-24.24Q110.88-23.76 110.32-23.36L110.32-23.36L110.32-23.36Q109.76-22.96 109.52-22.88L109.52-22.88L109.52-22.88Q108.00-22 106.68-21.24L106.68-21.24L106.68-21.24Q105.36-20.48 104.00-19.84L104.00-19.84L104.00-19.84Q105.84-19.12 107.76-17.80L107.76-17.80L107.76-17.80Q109.68-16.48 111.44-14.96L111.44-14.96L111.44-14.96Q113.20-13.44 114.72-12.04L114.72-12.04L114.72-12.04Q116.24-10.64 117.28-9.76" fill="#292664" stroke="none" stroke-width="none" transform="translate(-69.11996459960938,19.89839532761348)" style="transform:matrix(1, 0, 0, 1, -69.12, 19.8984);fill:rgb(242, 190, 209);animation-play-state:paused" ></path></g>
<g class="path" style="transform-origin:22.144px 13.6984px;transform:matrix(0.954347, 0, 0, 0.954347, 0, 0);animation-timing-function:linear;animation-play-state:paused;animation-name:breath-dc2203c6-1acf-496f-84d8-da1fe7fb35aa;animation-iteration-count:infinite;animation-fill-mode:forwards;animation-duration:1s;animation-delay:-0.188571s" ><path d="M91.36-4.80L91.36-4.80L91.36-4.80Q91.60-3.44 92.00-2.16L92.00-2.16L92.00-2.16Q92.40-0.88 92.96 0L92.96 0L92.96 0Q93.04 0 93.08 0.12L93.08 0.12L93.08 0.12Q93.12 0.24 92.96 0.24L92.96 0.24L92.96 0.24Q92.80 0.24 92.60 0.12L92.60 0.12L92.60 0.12Q92.40 0 92.24 0L92.24 0L92.24 0Q91.20-0.64 90.60-1.56L90.60-1.56L90.60-1.56Q90.00-2.48 89.60-4.80L89.60-4.80L89.60-4.80Q89.44-5.68 89.44-7.04L89.44-7.04L89.44-7.04Q89.44-8.40 89.52-9.64L89.52-9.64L89.52-9.64Q89.60-10.88 89.76-11.76L89.76-11.76L89.76-11.76Q89.92-12.64 90.24-12.64L90.24-12.64L90.24-12.64Q90.32-12.64 90.44-12.24L90.44-12.24L90.44-12.24Q90.56-11.84 90.64-11.32L90.64-11.32L90.64-11.32Q90.72-10.80 90.76-10.32L90.76-10.32L90.76-10.32Q90.80-9.84 90.80-9.68L90.80-9.68L90.80-9.68Q90.96-8.32 91.04-7.12L91.04-7.12L91.04-7.12Q91.12-5.92 91.36-4.80" fill="#292664" stroke="none" stroke-width="none" transform="translate(-69.11996459960938,19.89839532761348)" style="transform:matrix(1, 0, 0, 1, -69.12, 19.8984);fill:rgb(135, 67, 77);animation-play-state:paused" ></path></g>
<g class="path" style="transform-origin:56.4839px 20.319px;transform:matrix(0.946956, 0, 0, 0.946956, 0, 0);animation-timing-function:linear;animation-play-state:paused;animation-name:breath-dc2203c6-1acf-496f-84d8-da1fe7fb35aa;animation-iteration-count:infinite;animation-fill-mode:forwards;animation-duration:1s;animation-delay:-0.157143s" ><path d="M126.40 0.24L126.40 0.24L126.40 0.24Q127.68 0.32 128.36 0.28L128.36 0.28L128.36 0.28Q129.04 0.24 130.16 0.08L130.16 0.08L130.16 0.08Q130.24 0.08 130.56 0.04L130.56 0.04L130.56 0.04Q130.88 0 130.96 0.08L130.96 0.08L130.96 0.08Q131.04 0.24 130.76 0.48L130.76 0.48L130.76 0.48Q130.48 0.72 130.32 0.80L130.32 0.80L130.32 0.80Q129.04 1.20 127.96 1.36L127.96 1.36L127.96 1.36Q126.88 1.52 124.80 1.28L124.80 1.28L124.80 1.28Q124.08 1.20 123.20 0.96L123.20 0.96L123.20 0.96Q122.32 0.72 121.60 0.44L121.60 0.44L121.60 0.44Q120.88 0.16 120.48-0.12L120.48-0.12L120.48-0.12Q120.08-0.40 120.32-0.56L120.32-0.56L120.32-0.56Q120.48-0.64 121.32-0.44L121.32-0.44L121.32-0.44Q122.16-0.24 122.48-0.16L122.48-0.16L122.48-0.16Q123.60 0.08 124.56 0.16L124.56 0.16L124.56 0.16Q125.52 0.24 126.40 0.24" fill="#292664" stroke="none" stroke-width="none" transform="translate(-69.11996459960938,19.89839532761348)" style="transform:matrix(1, 0, 0, 1, -69.12, 19.8984);fill:rgb(85, 43, 47);animation-play-state:paused" ></path></g>
<g class="path" style="transform-origin:72.1797px -19.0569px;transform:matrix(0.939565, 0, 0, 0.939565, 0, 0);animation-timing-function:linear;animation-play-state:paused;animation-name:breath-dc2203c6-1acf-496f-84d8-da1fe7fb35aa;animation-iteration-count:infinite;animation-fill-mode:forwards;animation-duration:1s;animation-delay:-0.125714s" ><path d="M144.56-40.64L144.56-40.64L144.56-40.64Q143.44-36.32 141.80-31.68L141.80-31.68L141.80-31.68Q140.16-27.04 138.40-22.88L138.40-22.88L138.40-22.88Q138.32-22.72 138-22.12L138-22.12L138-22.12Q137.68-21.52 137.52-21.60L137.52-21.60L137.52-21.60Q137.28-21.60 137.32-22.28L137.32-22.28L137.32-22.28Q137.36-22.96 137.44-23.20L137.44-23.20L137.44-23.20Q137.52-24.16 137.80-25.60L137.80-25.60L137.80-25.60Q138.08-27.04 138.36-28.56L138.36-28.56L138.36-28.56Q138.64-30.08 139-31.52L139-31.52L139-31.52Q139.36-32.96 139.68-34L139.68-34L139.68-34Q139.92-34.72 140.56-37.60L140.56-37.60L140.56-37.60Q141.20-40.48 141.80-44L141.80-44L141.80-44Q142.40-47.52 142.72-50.80L142.72-50.80L142.72-50.80Q143.04-54.08 142.72-55.60L142.72-55.60L142.72-55.60Q142.56-56.32 142.72-56.32L142.72-56.32L142.72-56.32Q142.88-56.32 143-56.12L143-56.12L143-56.12Q143.12-55.92 143.28-55.76L143.28-55.76L143.28-55.76Q144.16-54.40 144.64-52.48L144.64-52.48L144.64-52.48Q145.12-50.56 145.24-48.44L145.24-48.44L145.24-48.44Q145.36-46.32 145.16-44.24L145.16-44.24L145.16-44.24Q144.96-42.16 144.56-40.64" fill="#292664" stroke="none" stroke-width="none" transform="translate(-69.11996459960938,19.89839532761348)" style="transform:matrix(1, 0, 0, 1, -69.12, 19.8984);fill:rgb(41, 38, 100);animation-play-state:paused" ></path></g>
<g class="path" style="transform-origin:76.3856px -12.0705px;transform:matrix(0.932174, 0, 0, 0.932174, 0, 0);animation-timing-function:linear;animation-play-state:paused;animation-name:breath-dc2203c6-1acf-496f-84d8-da1fe7fb35aa;animation-iteration-count:infinite;animation-fill-mode:forwards;animation-duration:1s;animation-delay:-0.0942857s" ><path d="M140.96-57.76L140.96-57.76L140.96-57.76Q142.08-53.92 141.68-49.80L141.68-49.80L141.68-49.80Q141.28-45.68 140.12-41.36L140.12-41.36L140.12-41.36Q138.96-37.04 137.52-32.56L137.52-32.56L137.52-32.56Q136.08-28.08 135.04-23.68L135.04-23.68L135.04-23.68Q134.08-19.52 133.72-15.44L133.72-15.44L133.72-15.44Q133.36-11.36 134.24-7.12L134.24-7.12L134.24-7.12Q134.48-7.52 134.76-7.68L134.76-7.68L134.76-7.68Q135.04-7.84 135.36-8.08L135.36-8.08L135.36-8.08Q135.36-9.04 135.36-10.04L135.36-10.04L135.36-10.04Q135.36-11.04 135.44-11.84L135.44-11.84L135.44-11.84Q135.52-12.64 135.68-13.12L135.68-13.12L135.68-13.12Q135.84-13.60 136.16-13.60L136.16-13.60L136.16-13.60Q136.24-13.60 136.36-13.20L136.36-13.20L136.36-13.20Q136.48-12.80 136.56-12.28L136.56-12.28L136.56-12.28Q136.64-11.76 136.72-11.24L136.72-11.24L136.72-11.24Q136.80-10.72 136.80-10.56L136.80-10.56L136.80-10.56Q136.88-9.92 136.88-9.60L136.88-9.60L136.88-9.60Q136.88-9.28 137.04-8.88L137.04-8.88L137.04-8.88Q137.20-8.96 137.56-9.08L137.56-9.08L137.56-9.08Q137.92-9.20 138.32-9.28L138.32-9.28L138.32-9.28Q138.72-15.04 140.16-20.76L140.16-20.76L140.16-20.76Q141.60-26.48 143.36-32.32L143.36-32.32L143.36-32.32Q144.48-36.08 145.48-40.04L145.48-40.04L145.48-40.04Q146.48-44 146.64-48.56L146.64-48.56L146.64-48.56Q146.64-48.96 146.88-48.96L146.88-48.96L146.88-48.96Q146.96-48.96 146.96-48.80L146.96-48.80L146.96-48.80Q146.96-48.64 147.12-48.48L147.12-48.48L147.12-48.48Q148-46.32 147.76-42.84L147.76-42.84L147.76-42.84Q147.52-39.36 146.80-35.64L146.80-35.64L146.80-35.64Q146.08-31.92 145.12-28.44L145.12-28.44L145.12-28.44Q144.16-24.96 143.68-22.88L143.68-22.88L143.68-22.88Q142.80-19.52 141.68-16.04L141.68-16.04L141.68-16.04Q140.56-12.56 139.52-9.52L139.52-9.52L139.52-9.52Q141.04-9.76 142.76-9.84L142.76-9.84L142.76-9.84Q144.48-9.92 145.92-9.88L145.92-9.88L145.92-9.88Q147.36-9.84 148.44-9.80L148.44-9.80L148.44-9.80Q149.52-9.76 149.84-9.76L149.84-9.76L149.84-9.76Q152.16-9.68 154.64-9.20L154.64-9.20L154.64-9.20Q157.12-8.72 158.96-8.40L158.96-8.40L158.96-8.40Q159.60-8.24 159.60-8.08L159.60-8.08L159.60-8.08Q159.60-7.92 159.36-7.84L159.36-7.84L159.36-7.84Q159.12-7.76 158.96-7.68L158.96-7.68L158.96-7.68Q155.44-6.56 151.88-6.76L151.88-6.76L151.88-6.76Q148.32-6.96 144.48-7.36L144.48-7.36L144.48-7.36Q143.04-7.52 141.48-7.60L141.48-7.60L141.48-7.60Q139.92-7.68 138.40-7.56L138.40-7.56L138.40-7.56Q136.88-7.44 135.48-7L135.48-7L135.48-7Q134.08-6.56 132.96-5.60L132.96-5.60L132.96-5.60Q131.20-10.16 131.44-15.20L131.44-15.20L131.44-15.20Q131.68-20.24 132.88-25.28L132.88-25.28L132.88-25.28Q133.92-29.68 135.28-34.04L135.28-34.04L135.28-34.04Q136.64-38.40 137.80-42.52L137.80-42.52L137.80-42.52Q138.96-46.64 139.72-50.48L139.72-50.48L139.72-50.48Q140.48-54.32 140.40-57.84L140.40-57.84L140.40-57.84Q140.56-58.32 140.64-58.32L140.64-58.32L140.64-58.32Q140.72-58.40 140.80-58.12L140.80-58.12L140.80-58.12Q140.88-57.84 140.96-57.76" fill="#292664" stroke="none" stroke-width="none" transform="translate(-69.11996459960938,19.89839532761348)" style="transform:matrix(1, 0, 0, 1, -69.12, 19.8984);fill:rgb(102, 115, 149);animation-play-state:paused" ></path></g>
<g class="path" style="transform-origin:90.7619px 12.803px;transform:matrix(0.924783, 0, 0, 0.924783, 0, 0);animation-timing-function:linear;animation-play-state:paused;animation-name:breath-dc2203c6-1acf-496f-84d8-da1fe7fb35aa;animation-iteration-count:infinite;animation-fill-mode:forwards;animation-duration:1s;animation-delay:-0.0628571s" ><path d="M163.28-10L163.28-10L163.28-10Q163.44-10.24 163.56-9.96L163.56-9.96L163.56-9.96Q163.68-9.68 163.52-9.28L163.52-9.28L163.52-9.28Q163.04-8.08 162.60-7.20L162.60-7.20L162.60-7.20Q162.16-6.32 160.88-5.44L160.88-5.44L160.88-5.44Q160.32-5.04 159.52-4.72L159.52-4.72L159.52-4.72Q158.72-4.40 158-4.24L158-4.24L158-4.24Q157.28-4.08 156.72-4.08L156.72-4.08L156.72-4.08Q156.16-4.08 156.16-4.40L156.16-4.40L156.16-4.40Q156.08-4.64 156.84-5.04L156.84-5.04L156.84-5.04Q157.60-5.44 157.92-5.60L157.92-5.60L157.92-5.60Q158.56-6 159.20-6.36L159.20-6.36L159.20-6.36Q159.84-6.72 160.48-7.20L160.48-7.20L160.48-7.20Q161.12-7.84 161.88-8.48L161.88-8.48L161.88-8.48Q162.64-9.12 163.28-10" fill="#292664" stroke="none" stroke-width="none" transform="translate(-69.11996459960938,19.89839532761348)" style="transform:matrix(1, 0, 0, 1, -69.12, 19.8984);fill:rgb(148, 169, 206);animation-play-state:paused" ></path></g>
<g class="path" style="transform-origin:77.8934px 16.0101px;transform:matrix(0.917391, 0, 0, 0.917391, 0, 0);animation-timing-function:linear;animation-play-state:paused;animation-name:breath-dc2203c6-1acf-496f-84d8-da1fe7fb35aa;animation-iteration-count:infinite;animation-fill-mode:forwards;animation-duration:1s;animation-delay:-0.0314286s" ><path d="M163.68-7.60L163.68-7.60L163.68-7.60Q163.92-8 163.92-7.68L163.92-7.68L163.92-7.68Q163.92-7.36 163.84-7.20L163.84-7.20L163.84-7.20Q162.64-4.48 161.08-3.04L161.08-3.04L161.08-3.04Q159.52-1.60 157.72-0.92L157.72-0.92L157.72-0.92Q155.92-0.24 153.96-0.12L153.96-0.12L153.96-0.12Q152 0 150.08 0L150.08 0L150.08 0Q144.72-0.08 139.64-0.44L139.64-0.44L139.64-0.44Q134.56-0.80 130.48 0L130.48 0L130.48 0Q130.32 0 130.16 0.04L130.16 0.04L130.16 0.04Q130 0.08 130.32-0.16L130.32-0.16L130.32-0.16Q132.24-2.08 134.64-2.48L134.64-2.48L134.64-2.48Q137.04-2.88 139.72-2.60L139.72-2.60L139.72-2.60Q142.40-2.32 145.20-1.76L145.20-1.76L145.20-1.76Q148-1.20 150.64-1.12L150.64-1.12L150.64-1.12Q154-1.04 157.56-2.52L157.56-2.52L157.56-2.52Q161.12-4 163.68-7.60" fill="#292664" stroke="none" stroke-width="none" transform="translate(-69.11996459960938,19.89839532761348)" style="transform:matrix(1, 0, 0, 1, -69.12, 19.8984);fill:rgb(181, 204, 241);animation-play-state:paused" ></path></g>
<g class="path" style="transform-origin:72.08px 15.9519px;transform:matrix(0.91, 0, 0, 0.91, 0, 0);animation-timing-function:linear;animation-play-state:paused;animation-name:breath-dc2203c6-1acf-496f-84d8-da1fe7fb35aa;animation-iteration-count:infinite;animation-fill-mode:forwards;animation-duration:1s" ><path d="M151.44-3.92L151.44-3.92L151.44-3.92Q151.44-3.76 151.12-3.68L151.12-3.68L151.12-3.68Q150.80-3.60 150.64-3.60L150.64-3.60L150.64-3.60Q149.44-3.36 147.40-3.28L147.40-3.28L147.40-3.28Q145.36-3.20 143.68-3.36L143.68-3.36L143.68-3.36Q143.28-3.36 141.84-3.48L141.84-3.48L141.84-3.48Q140.40-3.60 138.52-3.56L138.52-3.56L138.52-3.56Q136.64-3.52 134.72-3.12L134.72-3.12L134.72-3.12Q132.80-2.72 131.44-1.76L131.44-1.76L131.44-1.76Q131.12-1.44 130.96-1.68L130.96-1.68L130.96-1.68Q130.96-1.76 131.08-2.04L131.08-2.04L131.08-2.04Q131.20-2.32 131.28-2.40L131.28-2.40L131.28-2.40Q132.40-4.16 134.76-5.08L134.76-5.08L134.76-5.08Q137.12-6 139.52-6.24L139.52-6.24L139.52-6.24Q142.08-6.48 145.04-5.96L145.04-5.96L145.04-5.96Q148-5.44 150.64-4.64L150.64-4.64L150.64-4.64Q150.72-4.64 151.08-4.40L151.08-4.40L151.08-4.40Q151.44-4.16 151.44-3.92" fill="#292664" stroke="none" stroke-width="none" transform="translate(-69.11996459960938,19.89839532761348)" style="transform:matrix(1, 0, 0, 1, -69.12, 19.8984);fill:rgb(245, 244, 250);animation-play-state:paused" ></path></g></g></g></g></svg>